<?xml version="1.0" encoding="UTF-8"?>
<svg xmlns="http://www.w3.org/2000/svg" xmlns:xlink="http://www.w3.org/1999/xlink" width="50pt" height="50pt" viewBox="0 0 50 50" version="1.1">
<g id="surface1">
<path style=" stroke:none;fill-rule:nonzero;fill:rgb(0%,0%,0%);fill-opacity:1;" d="M 40.625 15.625 C 40.199219 15.625 39.789062 15.695312 39.375 15.75 C 36.992188 10.167969 31.453125 6.25 25 6.25 C 18.546875 6.25 13.007812 10.167969 10.625 15.75 C 10.210938 15.695312 9.804688 15.625 9.375 15.625 C 4.195312 15.625 0 19.820312 0 25 C 0 30.179688 4.195312 34.375 9.375 34.375 C 10.378906 34.375 11.320312 34.167969 12.226562 33.867188 C 13.890625 35.710938 16.175781 36.949219 18.75 37.328125 L 18.75 34.144531 C 16.316406 33.636719 14.277344 32.050781 13.25 29.851562 C 12.183594 30.710938 10.851562 31.25 9.375 31.25 C 5.925781 31.25 3.125 28.449219 3.125 25 C 3.125 21.550781 5.925781 18.75 9.375 18.75 C 10.609375 18.75 11.75 19.121094 12.714844 19.730469 C 13.738281 13.855469 18.828125 9.375 25 9.375 C 31.175781 9.375 36.21875 13.878906 37.230469 19.761719 C 38.207031 19.128906 39.375 18.75 40.625 18.75 C 44.074219 18.75 46.875 21.550781 46.875 25 C 46.875 28.449219 44.074219 31.25 40.625 31.25 C 40.125 31.25 39.648438 31.175781 39.179688 31.066406 C 37.765625 33.0625 35.445312 34.375 32.8125 34.375 C 32.273438 34.375 31.757812 34.296875 31.25 34.179688 L 31.25 37.351562 C 31.757812 37.433594 32.277344 37.5 32.8125 37.5 C 35.800781 37.5 38.5 36.296875 40.476562 34.355469 C 40.527344 34.355469 40.570312 34.375 40.625 34.375 C 45.804688 34.375 50 30.179688 50 25 C 50 19.820312 45.804688 15.625 40.625 15.625 Z M 28.125 25 L 21.875 25 L 21.875 40.625 L 15.625 40.625 L 25 50 L 34.375 40.625 L 28.125 40.625 Z M 28.125 25 "/>
</g>
</svg>
